PathFileType	3	(X/Y/Z)	D:\Jess\Healthy\Labelled\HA28\20251211\SRRun01.trc
DataRate	CameraRate	NumFrames	NumMarkers	Units	OrigDataRate	OrigDataStartFrame	OrigNumFrames
250.0	250.0	4	37	mm	250.0	36563	2501
Frame#	Time	C7			T10			CLAV			LSHO			RSHO			LASIS			RASIS			LPSIS			RPSIS			LILCR			RILCR			LGTR			LTHI			LLTHI			LLEP			LMEP			LPSH			LLSH			LDSH			LLMAL			LMMAL			LTOE			L5TH			LHEE			RGTR			RTHI			RLTHI			RLEP			RMEP			RPSH			RLSH			RDSH			RLMAL			RMMAL			RTOE			R5TH			RHEE			
		X1	Y1	Z1	X2	Y2	Z2	X3	Y3	Z3	X4	Y4	Z4	X5	Y5	Z5	X6	Y6	Z6	X7	Y7	Z7	X8	Y8	Z8	X9	Y9	Z9	X10	Y10	Z10	X11	Y11	Z11	X12	Y12	Z12	X13	Y13	Z13	X14	Y14	Z14	X15	Y15	Z15	X16	Y16	Z16	X17	Y17	Z17	X18	Y18	Z18	X19	Y19	Z19	X20	Y20	Z20	X21	Y21	Z21	X22	Y22	Z22	X23	Y23	Z23	X24	Y24	Z24	X25	Y25	Z25	X26	Y26	Z26	X27	Y27	Z27	X28	Y28	Z28	X29	Y29	Z29	X30	Y30	Z30	X31	Y31	Z31	X32	Y32	Z32	X33	Y33	Z33	X34	Y34	Z34	X35	Y35	Z35	X36	Y36	Z36	X37	Y37	Z37	

1564	146.248	814.1237006884608	1418.51106423451	-613.3874494992425	863.3240400710678	1178.673120687258	-519.8807899467494	768.906736019455	1326.866843644596	-725.1072049098109	658.542422885611	1385.699597972093	-600.1020253585102	934.4535112901699	1404.049627728093	-716.353394948418	700.2397035349901	959.7386459086125	-696.4394342674905	925.4230591606375	943.3260892367251	-717.5803545975962	800.6284372326816	999.4861953736249	-537.7983067001073	840.9986199066437	1001.593353663852	-545.6115146006155	671.0721143648451	1028.496477981683	-627.4004788946689	950.9423897112802	1014.761227111376	-665.8992427174278	632.3106241402578	861.6696342195761	-627.9341506702515	728.557688392044	742.8096215142951	-761.6485068303672	678.2688068193064	634.6894008975072	-700.6593088682268	700.5923379357599	506.7635787778103	-753.8590901745478	nan	nan	nan	765.4875339151613	434.5673011725447	-808.084606632123	690.7242602766365	317.1062939012878	-756.9955496830568	768.3391595869244	230.8390463836509	-813.2314988579428	735.7735161227982	118.1065465468833	-782.7991366585634	nan	nan	nan	762.1843444063001	69.98505939503552	-901.4981684175635	732.3113202522671	44.32280128239459	-863.5330662922406	777.9138188406979	96.26217468283545	-699.0494837055545	989.3552848651599	857.4446279973874	-642.310038725833	901.2866349878082	692.3121634444218	-678.1239619223688	951.0025890372684	608.7102184579953	-566.1559664975497	940.4386431000454	493.305912023022	-498.076499553814	nan	nan	nan	887.7691019981515	409.3854584875039	-472.4600637970727	961.8334197908018	407.973837236749	-362.830654344271	911.515027737162	300.004906534529	-300.6705952519771	941.3082050621657	281.825439279659	-192.0696156960332	nan	nan	nan	925.1633286083759	144.1100677529481	-161.4359810397756	952.0152389262419	179.4266428830456	-125.6203022451741	889.3829408369813	345.9124831161633	-155.9672044595771	
1565	146.252	813.2498217699432	1415.883237724028	-613.0192044042888	862.4978955690873	1175.966108540116	-519.5200442893852	768.9266791565093	1324.09945311825	-725.2399389510564	657.5996031668195	1382.430693751852	-600.5850425520911	934.4258275221468	1401.502386259124	-715.3552011735671	699.8799294166673	956.8740639449413	-696.6044336708289	925.518727007151	941.0904877986669	-717.9394181164309	800.6457988830535	995.6579312616697	-537.806477548089	841.0695350489221	997.9711498351578	-545.585678702881	670.762087220955	1024.943597508507	-627.1321802397193	951.1995826619506	1012.259357724549	-665.9076524515765	632.520649760738	857.8521464166605	-628.3760350783168	729.4516464734395	741.5997692925827	-763.1381196166758	678.8202824216206	632.1658595614498	-702.8070743459534	701.2245349815533	504.0944310384062	-754.419886983496	nan	nan	nan	765.6331027096686	431.0242327701017	-807.5955995059626	691.4205437849911	314.389234822946	-754.0967346062214	769.1590162536208	227.1982923683498	-808.3155783711171	736.1572085340322	115.6424075674744	-775.4851143042033	nan	nan	nan	762.8939471824611	67.46185365032548	-893.9546095242023	732.4694898575966	42.31571082404999	-855.8790093040177	778.1300347396508	94.00947631268897	-691.2860919427751	989.3611737732082	854.5124486316721	-643.2687458780352	902.0010058850531	689.7252103073587	-680.422430640696	951.9813205553381	605.0129764343767	-569.1653238251801	941.7595833212642	489.8999775587245	-502.1891298814068	nan	nan	nan	889.9574718266822	405.8392869333487	-475.9111062710462	962.9969569174035	407.4589656849427	-365.5068685664519	913.6066142021489	300.0538661461762	-301.7825443271791	942.6256267328458	284.435942602453	-192.6124789669514	nan	nan	nan	928.499273287663	147.0771505618393	-159.940626286107	954.4356495539066	183.4223617005989	-124.5784438073107	889.3228098987839	348.3472522221929	-158.0661341014595	
1566	146.256	812.3491844448901	1413.153128627771	-612.6328329047524	861.6285386129109	1173.101535214207	-519.1396686626578	768.9606553304001	1321.191537513182	-725.3880793225156	656.6264873308523	1379.037647651145	-601.0824415656112	934.4358111309068	1398.844894729964	-714.278870548279	699.5084199611839	953.8908800875594	-696.7333661153928	925.6266075054726	938.6679732052146	-718.2716965007081	800.6727389454599	991.6505671764428	-537.7524155934129	841.1527863502694	994.1559005195176	-545.490055202158	670.411129206043	1021.208260390602	-626.8476785655845	951.4887760895765	1009.556551383619	-665.8990395661313	632.6849551814965	853.9997970684053	-628.8231054233449	730.2892146338467	740.4200358318134	-764.6515480779067	679.3924652839811	629.5839812784038	-704.8303158524453	701.9027529717424	501.2844354247528	-754.7517951806941	nan	nan	nan	765.7826154309389	427.2720037388863	-806.9385968566403	692.2494440967596	311.6179838291802	-750.7586628793366	770.0645157154646	223.4991280491236	-802.9377383703983	736.6160254508885	113.2657828035026	-767.5391849237769	nan	nan	nan	763.5682232527271	65.18755350186056	-885.8147669344437	732.5731670122717	40.54605893314629	-847.6670542430293	778.472179076797	91.70340442178795	-682.9335187218888	989.35973920125	851.3727462063039	-644.2029352578874	902.8324628519226	687.0037280166615	-682.7200738794271	953.0764812953973	601.250581604024	-572.1090960830899	943.2164929351836	486.471958130204	-506.3189417761173	nan	nan	nan	892.3552462430525	402.2417211534751	-479.5072436538787	964.199342222931	406.8973852637418	-368.3185559714875	915.725840313127	300.0226584165206	-303.1497403992108	943.8485656001271	286.9691549064552	-193.468227912442	nan	nan	nan	931.8288475350445	150.0017645864914	-158.8385617261473	956.7986256221935	187.3658821408445	-123.9287908877289	889.1003761304556	350.6091068229417	-160.4833943088852	
1567	146.26	811.4202997671975	1410.338935700107	-612.2371047452745	860.7168388302534	1170.099835613648	-518.7380541242094	769.0086131910609	1318.148949668624	-725.5537004942133	655.6222213183196	1375.533555891454	-601.5988568421856	934.4840262354812	1396.086047357419	-713.1345394284936	699.1270933044773	950.8053517002339	-696.8208052056865	925.7473518250385	936.0684863183707	-718.5712687069885	800.713213158834	987.48874245174	-537.6287808468272	841.2517956110663	990.1652559651684	-545.3168239362357	670.0235415587753	1017.314884459787	-626.5458896410851	951.8120869214097	1006.656111201728	-665.8625206790349	632.8025798572397	850.1320254880958	-629.2638886407578	731.0428554083846	739.2084232769796	-766.1482814487958	679.9818387915656	626.9435807992411	-706.6760947177003	702.6332290891793	498.3517130745278	-754.8498552795847	nan	nan	nan	765.9751132109969	423.3432041530339	-806.09756229364	693.2177357685157	308.8376154233471	-746.9945898090142	771.062107411362	219.7916618974398	-797.1302209919194	737.1590185484054	111.0175386850728	-759.0232929070414	nan	nan	nan	764.2211422912022	63.19202513675693	-877.1361554007246	732.6417267005769	39.03669373028372	-838.9594537761458	778.943402576945	89.38157382660751	-674.0538643951887	989.3518467937802	848.0361415578068	-645.1129460898903	903.780995157015	684.1696128647778	-685.0229154204218	954.2806536498662	597.4394347554764	-575.0004726454486	944.8024263104503	483.0339236937377	-510.4726964654931	nan	nan	nan	894.9424923273998	398.6123519535365	-483.2458877812028	965.4372990826112	406.2836259262218	-371.2741189259223	917.8532194118102	299.9154293519237	-304.7724061872432	944.9699280114667	289.4161501168282	-194.6423579566672	nan	nan	nan	935.1270485891569	152.8755783196095	-158.1567645862065	959.0915493447711	191.2357375662806	-123.6933078160815	888.7267896627889	352.6904605092414	-163.2020580269021	
